<!--?xml version="1.0" encoding="utf-8"?-->
<!-- Generator: Adobe Illustrator 18.1.1, SVG Export Plug-In . SVG Version: 6.00 Build 0)  -->

<svg version="1.1" id="_x31_0" xmlns="http://www.w3.org/2000/svg" xmlns:xlink="http://www.w3.org/1999/xlink" x="0px" y="0px" viewBox="0 0 512 512" style="width: 128px; height: 128px; opacity: 1;" xml:space="preserve">
<style type="text/css">
	.st0{fill:#374149;}
</style>
<g>
	<path class="st0" d="M308.946,237.317c-0.16-0.856-0.281-1.715-0.457-2.566c-0.11-0.508-0.254-1.004-0.367-1.508
		c-1.058-4.75-2.371-9.465-4.047-14.106l-0.058,0.054c-0.019-0.054-0.035-0.113-0.054-0.168l-71.699,71.7
		c-0.657,0.762-1.313,1.469-2.02,2.175l-81.27,81.27c-18.746,18.746-49.418,18.746-68.16,0c-18.746-18.742-18.746-49.418,0-68.16
		l81.27-81.27c0.574-0.578,1.203-1.156,1.809-1.707l50.531-50.531l21.453-21.359c-0.023-0.008-0.046-0.012-0.07-0.024l0.126-0.125
		c-40.766-14.969-88.375-6.11-121.039,26.555l-81.27,81.27c-44.828,44.832-44.828,117.711,0,162.543
		c44.805,44.801,117.711,44.828,162.54,0l81.27-81.274C305.313,312.207,315.77,273.429,308.946,237.317z"></path>
	<path class="st0" d="M478.376,90.641c-44.801-44.801-117.707-44.829-162.539,0l-81.27,81.274
		c-27.867,27.867-38.329,66.625-31.52,102.726c0.16,0.871,0.286,1.746,0.465,2.618c0.106,0.484,0.242,0.965,0.352,1.449
		c1.058,4.766,2.378,9.5,4.058,14.156l0.058-0.058c0.019,0.058,0.035,0.118,0.058,0.172l71.7-71.699
		c0.656-0.762,1.308-1.469,2.019-2.176l81.27-81.27c18.742-18.746,49.418-18.746,68.16,0c18.746,18.742,18.746,49.418,0,68.16
		l-81.27,81.27c-0.574,0.578-1.206,1.153-1.808,1.707l-50.653,50.649l-21.332,21.242c0.023,0.007,0.047,0.011,0.07,0.023
		l-0.129,0.125c40.77,14.969,88.375,6.11,121.043-26.554l81.266-81.274C523.208,208.352,523.208,135.473,478.376,90.641z"></path>
</g>
</svg>
