<!--?xml version="1.0" encoding="utf-8"?-->
<!-- Generator: Adobe Illustrator 19.1.1, SVG Export Plug-In . SVG Version: 6.00 Build 0)  -->
<svg version="1.1" id="_x31_0" xmlns="http://www.w3.org/2000/svg" xmlns:xlink="http://www.w3.org/1999/xlink" x="0px" y="0px" viewBox="0 0 512 512" style="width: 128px; height: 128px; opacity: 1;" xml:space="preserve">
<style type="text/css">
	.st0{fill:#374149;}
</style>
<g>
	<path class="st0" d="M507.05,91.756H441.5h-0.039V62.174c0-25.832-21.015-46.848-46.851-46.848h-27.574
		c-25.832,0-46.848,21.016-46.848,46.848v29.582H192.05h-0.23V62.174c0-25.832-21.019-46.848-46.851-46.848h-27.574
		c-25.832,0-46.851,21.016-46.851,46.848v29.582H12.317C5.492,91.756,0,97.244,0,104.072v380.285
		c0,6.828,5.492,12.317,12.317,12.317H507.05c2.676,0,4.95-2.278,4.95-5.086V96.709C512,94.033,509.726,91.756,507.05,91.756z
		 M117.394,55.482h27.574c3.75,0,6.691,2.946,6.691,6.692v29.582v34.938c0,2.278-1.871,4.149-4.148,4.149h-32.661
		c-2.277,0-4.148-1.871-4.148-4.149V91.756V62.174C110.703,58.428,113.645,55.482,117.394,55.482z M367.035,55.482h27.574
		c3.75,0,6.691,2.946,6.691,6.692v29.582v34.938c0,2.278-1.871,4.149-4.149,4.149h-32.66c-2.274,0-4.148-1.871-4.148-4.149V91.756
		V62.174C360.344,58.428,363.289,55.482,367.035,55.482z M48.023,432.17V197.838h415.958V432.17c0,4.758-3.86,8.617-8.618,8.617
		H56.641C51.879,440.787,48.023,436.928,48.023,432.17z" style="fill: rgb(75, 75, 75);"></path>
	<path class="st0" d="M169.332,399.627h13.386v-38.418h66.661v38.418h13.382v-38.418h66.527v38.14v0.118l0,0v0.16h13.387v-38.418
		h55.148v-13.387h-55.148v-57.019h55.148v-13.387h-55.148v-38.418h-13.184h-0.042l0,0h-0.161v38.418h-66.527v-38.418h-13.183h-0.039
		l0,0h-0.16v38.418h-66.661v-38.418h-13.187h-0.039l0,0h-0.16v38.418H114.18v13.387h55.152v57.019H114.18v13.387h55.152V399.627z
		 M182.718,347.822v-57.019h66.661v57.019H182.718z M329.289,347.822h-66.527v-57.019h66.527v57.007V347.822z" style="fill: rgb(75, 75, 75);"></path>
</g>
</svg>
