<!--?xml version="1.0" encoding="utf-8"?-->
<!-- Generator: Adobe Illustrator 18.0.0, SVG Export Plug-In . SVG Version: 6.00 Build 0)  -->

<svg version="1.1" id="_x31_0" xmlns="http://www.w3.org/2000/svg" xmlns:xlink="http://www.w3.org/1999/xlink" x="0px" y="0px" viewBox="0 0 512 512" style="width: 128px; height: 128px; opacity: 1;" xml:space="preserve">
<style type="text/css">
	.st0{fill:#374149;}
</style>
<g>
	<path class="st0" d="M508.461,343.632L363.324,198.491L174.729,9.897c-4.058-4.058-9.531-6.394-15.27-6.523L12.358,0.104
		C5.472-0.049-0.15,5.577,0.003,12.463l3.27,147.098c0.129,5.742,2.465,11.211,6.523,15.27L198.39,363.425l145.137,145.137
		c0.386,0.383,0.882,0.543,1.305,0.867c0.449,0.344,0.914,0.656,1.402,0.93c0.93,0.524,1.859,0.906,2.867,1.164
		c0.441,0.114,0.882,0.199,1.336,0.262c1.105,0.153,2.171,0.153,3.281,0c0.454-0.062,0.898-0.148,1.336-0.262
		c1.008-0.258,1.938-0.64,2.867-1.164c0.484-0.274,0.95-0.582,1.398-0.93c0.422-0.32,0.922-0.48,1.309-0.867l73.914-73.914
		l73.918-73.918C513.18,356.007,513.18,348.351,508.461,343.632z M92.225,103.479c13.836-21.715,44.809-21.715,58.645,0
		c6.973,10.942,6.973,25.398,0,36.34c-13.836,21.718-44.809,21.718-58.645,0C85.253,128.878,85.253,114.421,92.225,103.479z" style="fill: rgb(75, 75, 75);"></path>
</g>
</svg>
